<?xml version="1.0" standalone="no"?>
<!DOCTYPE svg PUBLIC "-//W3C//DTD SVG 20010904//EN"
 "http://www.w3.org/TR/2001/REC-SVG-20010904/DTD/svg10.dtd">
<svg version="1.0" xmlns="http://www.w3.org/2000/svg"
 width="223.000000pt" height="223.000000pt" viewBox="0 0 223.000000 223.000000"
 preserveAspectRatio="xMidYMid meet">
<metadata>
Created by potrace 1.16, written by Peter Selinger 2001-2019
</metadata>
<g transform="translate(0.000000,223.000000) scale(0.100000,-0.100000)"
fill="#000000" stroke="none">
<path d="M150 1120 l0 -970 965 0 965 0 -2 963 -3 962 -2 -957 -3 -958 -955 0
-955 0 0 960 0 960 963 3 962 2 -967 3 -968 2 0 -970z"/>
<path d="M935 1546 c-18 -13 -19 -34 -23 -320 l-4 -306 -132 -1 c-72 0 -141
-2 -154 -5 -26 -5 -41 21 -23 39 21 21 11 23 -54 7 -37 -8 -65 -20 -65 -27 0
-9 -20 -13 -65 -13 -36 0 -73 -4 -83 -9 -9 -5 -36 -14 -59 -20 l-43 -12 2 -77
c0 -42 3 -62 5 -43 l5 35 18 -40 c21 -47 76 -80 117 -69 35 8 83 61 83 91 0
20 5 24 30 24 20 0 33 -6 36 -17 20 -62 29 -75 62 -89 58 -24 120 2 142 60 11
31 35 34 50 6 11 -20 19 -20 432 -18 l422 3 7 25 c6 24 7 23 23 -17 21 -49 70
-78 116 -68 34 7 80 57 80 86 0 25 20 25 27 0 4 -17 11 -19 57 -14 28 3 55 9
60 14 6 6 5 53 -3 126 -12 115 -26 153 -56 153 -7 0 -26 7 -43 15 -17 9 -73
26 -124 39 -84 22 -94 27 -110 57 -10 19 -18 44 -18 56 0 12 -8 27 -17 32 -16
9 -16 10 5 11 12 0 22 6 22 13 -1 15 -35 57 -47 57 -5 0 -36 21 -69 46 -32 25
-85 59 -117 75 -71 36 -226 79 -287 79 -25 0 -63 7 -85 15 -51 18 -96 19 -120
1z m293 -159 l3 -48 -83 3 -83 3 -3 33 c-6 60 -1 63 85 60 l78 -3 3 -48z m6
-142 c3 -9 3 -36 -1 -61 l-6 -45 -86 3 -86 3 -3 58 -3 57 89 0 c71 0 91 -3 96
-15z m381 -32 c21 -50 29 -109 17 -117 -18 -11 -174 11 -183 26 -10 15 -12
112 -2 121 3 4 39 7 80 7 l73 0 15 -37z"/>
</g>
</svg>
